<svg xmlns="http://www.w3.org/2000/svg" viewBox="0 0 22 20" width="22" height="20" aria-hidden="true" focusable="false"><g stroke="currentColor" stroke-linecap="round" stroke-linejoin="round" stroke-width="1.5" fill-rule="evenodd" fill="none"><path d="M5.67 7.1H1.58V3.03"></path><path d="M5.05 16.36a9 9 0 1 0 0-12.72L1.58 7.1"></path></g><path fill="currentColor" fill-rule="nonzero" d="M10.37 13h-1.2V9.15l.03-.6c-.2.2-.34.34-.42.4l-.66.53-.58-.73L9.38 7.3h1V13h-.01Zm5.55-2.86c0 1-.16 1.74-.5 2.22-.32.48-.82.72-1.5.72-.66 0-1.16-.25-1.5-.74a4 4 0 0 1-.5-2.2 4 4 0 0 1 .5-2.22c.32-.48.82-.72 1.5-.72.66 0 1.16.25 1.5.75a4 4 0 0 1 .5 2.2v-.01Zm-2.8 0c0 .7.07 1.2.19 1.51.12.3.32.46.6.46.29 0 .5-.16.62-.47.12-.3.19-.8.19-1.5s-.07-1.2-.2-1.5c-.12-.31-.32-.46-.6-.46-.28 0-.49.15-.61.46-.12.3-.18.8-.18 1.5h-.01Z"></path></svg>