<svg xmlns="http://www.w3.org/2000/svg" viewBox="0 0 18 18" width="18" height="18" aria-hidden="true" focusable="false"><g fill="currentColor"><path d="M2.03 14.2a1.306 1.306 0 0 1 .229-.75c.12-.179.242-.355.353-.539a.192.192 0 0 0 .004-.158c-.126-.255-.269-.501-.388-.758-.055-.118-.115-.165-.248-.166-.265-.002-.535 0-.793-.051-.574-.114-.978-.593-1.027-1.175C.107 9.985.056 9.366.004 8.748c-.053-.63.412-1.232 1.059-1.372.195-.042.393-.072.587-.12a.21.21 0 0 0 .128-.115c.097-.281.184-.566.266-.852a.196.196 0 0 0-.03-.155c-.126-.15-.264-.29-.397-.434a1.325 1.325 0 0 1-.076-1.741c.396-.49.803-.97 1.221-1.442.453-.51 1.165-.59 1.738-.214.148.097.296.195.44.297.06.042.103.048.174.01.29-.16.587-.303.877-.461a.208.208 0 0 0 .094-.142c.02-.233.01-.468.037-.699A1.33 1.33 0 0 1 7.372.143C7.912.109 8.45.063 8.988.01c.577-.056 1.046.112 1.375.61.146.22.206.473.233.725.031.284.131.44.436.489.244.039.476.153.711.242.08.03.13.025.195-.037.209-.193.41-.4.644-.556.458-.307 1.103-.25 1.525.106.474.4.947.802 1.419 1.205.496.423.593 1.193.223 1.74-.12.178-.234.36-.359.534-.05.072-.044.122-.004.198.134.25.258.506.377.764.038.08.075.12.173.121.256.003.515 0 .767.039.682.107 1.112.616 1.154 1.308.034.545.08 1.088.135 1.632.075.73-.39 1.362-1.11 1.495-.224.042-.447.087-.668.14-.043.01-.098.052-.112.092-.087.245-.166.493-.239.743a.194.194 0 0 0 .033.155c.152.177.312.347.473.515.483.505.507 1.276.056 1.808-.377.445-.754.89-1.13 1.337-.475.564-1.205.668-1.818.26-.186-.125-.376-.244-.558-.373-.069-.048-.116-.041-.186-.003-.236.13-.475.256-.718.373-.075.037-.096.081-.098.16-.01.303-.007.61-.049.908-.088.636-.653 1.096-1.297 1.115-.409.012-.816.07-1.225.1-.31.021-.621.09-.93-.002-.543-.162-.863-.527-.974-1.08-.04-.2-.08-.401-.116-.603-.014-.083-.053-.124-.136-.148a25.06 25.06 0 0 1-.877-.273c-.07-.023-.113-.024-.17.031-.162.161-.33.317-.5.47-.505.459-1.22.487-1.75.055a67.54 67.54 0 0 1-1.43-1.212 1.283 1.283 0 0 1-.433-.993ZM5.042 4.017c-.383-.257-.754-.507-1.127-.755-.146-.097-.237-.09-.342.034-.372.437-.743.875-1.112 1.315-.12.141-.116.219.009.353.285.309.568.619.86.92.07.072.07.124.03.203a6.49 6.49 0 0 0-.62 2.008c-.011.086-.057.105-.126.118-.425.084-.85.17-1.274.255-.167.033-.22.103-.207.273.042.563.085 1.126.13 1.689.014.185.083.256.271.264.433.017.867.03 1.3.04.076.002.117.02.142.097.22.68.544 1.308.968 1.882.07.093.051.16-.008.247-.246.363-.487.73-.728 1.095-.088.134-.075.23.044.33.437.373.874.744 1.312 1.115.138.116.22.114.353-.01.325-.302.65-.602.97-.91.08-.078.14-.088.24-.038a6.432 6.432 0 0 0 2.02.621c.097.014.119.065.134.144.085.444.173.888.261 1.331.04.197.105.247.298.231l1.672-.138c.196-.017.253-.078.26-.272.017-.462.039-.923.048-1.384.002-.11.041-.154.138-.187a6.396 6.396 0 0 0 1.774-.935c.072-.054.125-.046.196.003.382.259.767.513 1.153.768.17.112.239.1.37-.053l1.06-1.249c.157-.185.154-.26-.018-.441-.31-.33-.618-.662-.93-.99-.051-.054-.067-.096-.03-.169a6.498 6.498 0 0 0 .614-1.865c.018-.11.07-.151.176-.17.444-.082.886-.172 1.329-.26.174-.036.234-.113.22-.282l-.14-1.689c-.018-.2-.085-.258-.287-.263-.434-.01-.867-.024-1.3-.032-.09-.002-.144-.024-.172-.12a6.355 6.355 0 0 0-.933-1.899c-.046-.065-.043-.107.001-.17.241-.356.476-.715.714-1.073.144-.218.135-.273-.067-.443-.403-.34-.805-.68-1.206-1.023-.187-.16-.266-.16-.44.007-.302.286-.606.569-.905.857-.057.055-.102.056-.17.023a14.464 14.464 0 0 0-.659-.306 6.03 6.03 0 0 0-1.437-.393c-.091-.014-.153-.032-.174-.152-.068-.394-.156-.785-.236-1.178-.051-.248-.112-.283-.367-.26a94.37 94.37 0 0 1-1.588.132c-.207.016-.275.078-.281.283-.013.411-.028.821-.034 1.232-.002.099-.037.14-.125.167-.13.04-.255.09-.382.137a6.685 6.685 0 0 0-1.642.935Z"></path><path d="M8.963 5.376c1.94-.002 3.546 1.595 3.547 3.526.002 1.995-1.595 3.604-3.569 3.597-1.945-.007-3.542-1.615-3.544-3.568-.003-1.956 1.599-3.552 3.566-3.555ZM8.96 6.502C7.62 6.5 6.513 7.605 6.519 8.939c.006 1.33 1.122 2.443 2.435 2.434a2.434 2.434 0 0 0 2.433-2.427A2.433 2.433 0 0 0 8.96 6.502Z"></path></g></svg>