<svg width="86" height="78" viewBox="0 0 86 78" class="AutoPlayBox__icon" xmlns="http://www.w3.org/2000/svg"><path fill="currentColor" fill-rule="evenodd" d="M44.28 9.05a2 2 0 0 0-3.23-1.58L19.74 24.05a1.9 1.9 0 0 0-1.01.39H5.03a4.5 4.5 0 0 0-4.5 4.48V48.8c0 1.17.46 2.32 1.33 3.17.85.86 2 1.32 3.16 1.32h14.22l21.81 16.96a2 2 0 0 0 3.23-1.58V9.05ZM17.93 28.44H5.03a.5.5 0 0 0-.34.15l-.03.03a.42.42 0 0 0-.12.3V48.8c0 .14.05.24.12.3l.06.07c.06.06.17.12.3.12h12.9V28.44Zm4 21.86 18.35 14.28V13.14L21.93 27.4v22.9Z"></path><g fill="none" fill-rule="evenodd" stroke="currentColor" stroke-width="4" stroke-linecap="round"><path d="M51.68 27.75c7.37 6.75 8.07 14.09 0 22.2" class="AutoPlayBox__icon__blink"></path><path d="M60.92 18.05c13.65 15.58 11.9 29.21-.06 41.57" class="AutoPlayBox__icon__blink"></path><path d="M69.27 8.25c19.2 20.51 17.82 40.9.41 61.19" class="AutoPlayBox__icon__blink"></path><path d="m79.17 2.55-72.6 72.6"></path></g></svg>