<svg viewBox="0 0 24 22" width="24" height="22" aria-hidden="true" focusable="false" xmlns="http://www.w3.org/2000/svg"><g fill="none" fill-rule="evenodd"><path fill="currentColor" d="M12.59 2.87a.75.75 0 0 0-1.21-.59L5.6 6.77a.75.75 0 0 0-.26.1H1.68C.89 6.87.26 7.5.25 8.29v5.42c0 .37.14.74.42 1 .27.29.64.43 1 .43h3.81l5.9 4.58a.75.75 0 0 0 1.2-.59V2.87h.01Zm-7.6 5.5H1.75v5.27h3.24V8.37Zm1.5 5.65 4.6 3.58V4.4l-4.6 3.58v6.04Z"></path><g stroke="currentColor" stroke-linecap="round" stroke-width="1.5"><path d="M19.2 2.66c5.23 5.59 4.86 11.15.11 16.68"></path><path d="M16.92 5.33c3.73 4.25 3.25 7.96-.01 11.34"></path><path d="M14.4 7.97c2.01 1.85 2.2 3.85 0 6.06"></path><path d="M21.9 1.1 2.1 20.9"></path></g></g></svg>